# xmcd CD database file
#
# Track frame offsets:
#	150
#	14099
#	32629
#	48053
#	64975
#	80855
#	95039
#	108699
#	125078
#	140465
#	149575
#	171932
#	181536
#	198175
#
# Disc length: 2876 seconds
#
# Revision: 0
# Processed by: cddbd v1.5.2PL0 Copyright (c) Steve Scherf et al.
# Submitted via: CDex 1.70beta2
#
DISCID=d00b3a0e
DTITLE=The Almost Patsy Cline Band - The Almost Patsy Cline Band
DYEAR=2007
DGENRE=Country
TTITLE0=Walking after midnight
TTITLE1=Your Cheatin Heart
TTITLE2=Souht of the border
TTITLE3=Leaving on your mind
TTITLE4=Just a Closer walk
TTITLE5=You belong to me
TTITLE6=Rose of San Antone
TTITLE7=Faded Love
TTITLE8=She's got you
TTITLE9=Walking after midnight
TTITLE10=Crazy
TTITLE11=Back in Baby's Arms
TTITLE12=Sweet dreams (of you)
TTITLE13=Always
EXTD=YEAR: 2007
EXTT0=
EXTT1=
EXTT2=
EXTT3=
EXTT4=
EXTT5=
EXTT6=
EXTT7=
EXTT8=
EXTT9=
EXTT10=
EXTT11=
EXTT12=
EXTT13=
PLAYORDER=
